<?xml version="1.0" encoding="UTF-8"?>
<svg xmlns="http://www.w3.org/2000/svg" viewBox="0 0 616 581" role="img" aria-label="Aureum Apartments">
      <path fill="#b49b57" d="M153.75,442.87v.66c-3.75-.44-9.83-.66-14.36-.66-4.2,0-10.71.11-16.12.66v-.66c6.96-.66,10.16-3.2,7.73-9.61-1.44-3.75-3.64-8.95-6.18-14.8-4.42-.22-9.72-.33-15.13-.33s-11.15.11-15.46.33c-1.88,4.97-3.75,9.94-5.52,14.8-2.43,6.41-.44,8.94,6.74,9.61v.66c-3.87-.33-8.61-.66-11.93-.66-4.31,0-8.28.33-11.37.66v-.66c3.53-.55,6.96-3.09,9.83-9.72,8.17-18.55,23.41-54.88,29.26-70.12h.22c11.37,25.95,17.89,39.98,31.91,70.34,2.87,6.18,5.19,8.61,10.38,9.5h0ZM122.71,413.49c-4.86-10.93-10.38-23.08-14.14-31.25-3.98,9.72-8.17,20.43-12.37,31.14,3.87.33,9.28.55,13.36.55,4.31,0,8.94-.22,13.14-.44h.01Z"/>
      <path fill="#b49b57" d="M223.83,363.8v.66c-5.52.66-8.72,2.65-9.06,9.06-.55,10.16-.77,26.06-.77,38.65,0,21.09-10.27,32.14-29.37,32.14s-30.48-11.71-30.48-33.24c0-13.69,0-27.39-.66-37.55-.33-5.96-3.2-7.95-9.28-9.06v-.66c5.74.44,10.49.66,15.02.66s9.39-.22,15.02-.66v.66c-5.96,1.1-8.94,2.98-9.28,9.06-.66,10.6-.66,24.41-.66,37.99,0,19.22,7.18,28.16,21.87,28.16s21.76-8.17,21.76-27.06c0-10.82-.22-29.6-.66-38.98-.33-6.52-3.64-8.5-9.17-9.17v-.66c5.3.44,8.83.66,12.92.66,3.75,0,7.51-.22,12.81-.66h0Z"/>
      <path fill="#b49b57" d="M303.83,442.76v.66c-31.03,0-26.06-7.29-43.95-33.79-1.21.11-2.43.22-3.75.22-2.65,0-5.74-.22-8.06-.44,0,8.83.11,15.46.66,24.18.33,5.96,3.2,8.17,9.28,9.28v.66c-5.63-.44-10.6-.66-15.02-.66s-9.39.22-15.02.66v-.66c5.96-.99,8.94-3.31,9.28-9.28.55-9.94.66-18.66.66-29.93,0-7.51,0-21.76-.55-30.48-.44-6.07-3.31-7.84-9.28-8.72v-.66c5.41.44,9.61.66,14.14.66,4.97,0,9.94-.44,14.02-.44,17.12,0,26.06,9.39,26.06,21.76,0,8.5-4.31,16.45-12.04,20.65,14.47,24.07,21.09,36.11,33.57,36.33h0ZM271.92,387.43c0-9.61-4.86-19.22-17.01-19.22-2.1,0-4.09.22-6.18.44-.66,16.12-.66,23.85-.66,35.01v2.1c1.88.33,4.09.66,6.85.66,13.91,0,17.01-11.37,17.01-18.99h-.01Z"/>
      <path fill="#b49b57" d="M358.77,427.08c-.55,5.41-.55,10.6,0,16.34-9.83-.66-16.56-.55-23.96-.55-6.96,0-20.1.11-26.72.66v-.66c5.85-.99,8.94-2.98,9.28-9.39.55-10.16.55-17.67.55-29.82,0-10.82,0-19.77-.55-29.71-.33-6.07-3.31-8.5-9.17-9.5v-.66c6.74.55,16.12.66,26.61.66,7.95,0,17.12-.22,23.52-.66-.33,4.31-.44,9.94,0,15.13h-.66c-1.66-8.83-5.96-10.82-16.56-10.82-3.42,0-7.62.11-12.37.66-.55,14.69-.66,21.87-.66,30.92,3.31.11,6.85.11,12.59,0,7.62-.11,9.06-3.09,10.27-7.95l.66.11c-.33,3.2-.66,6.52-.66,9.61s.22,6.41.66,9.5l-.66.11c-1.44-5.3-2.54-7.4-10.27-7.62-4.53-.11-8.61-.11-12.59-.11v.33c0,12.04.11,20.87.44,26.83.55,7.51,6.07,8.17,14.58,8.17,9.06,0,12.7-1.88,15.02-11.71l.66.11v.02h0Z"/>
      <path fill="#b49b57" d="M442.19,363.8v.66c-5.52.66-8.72,2.65-9.06,9.06-.55,10.16-.77,26.06-.77,38.65,0,21.09-10.27,32.14-29.37,32.14s-30.48-11.71-30.48-33.24c0-13.69,0-27.39-.66-37.55-.33-5.96-3.2-7.95-9.28-9.06v-.66c5.74.44,10.49.66,15.02.66s9.39-.22,15.02-.66v.66c-5.96,1.1-8.95,2.98-9.28,9.06-.66,10.6-.66,24.41-.66,37.99,0,19.22,7.18,28.16,21.87,28.16s21.75-8.17,21.75-27.06c0-10.82-.22-29.6-.66-38.98-.33-6.52-3.64-8.5-9.17-9.17v-.66c5.3.44,8.83.66,12.92.66,3.75,0,7.51-.22,12.81-.66h0Z"/>
      <path fill="#b49b57" d="M539.56,433.53l-7.98-59.08c-.11-1.18-.08-2.39.23-3.54,1.34-4.96,6.1-7.37,10.94-7.95v-.66c-5.3.44-15.15.65-19.24.65l-28.8,62.13-.26,1.44-28.78-62.07c-4.09,0-13.94-.21-19.24-.65v.66c4.83.58,9.6,2.99,10.94,7.95.31,1.15.35,2.35.23,3.54l-5.4,57.15c-.88,6.51-4.37,8.28-10.67,9.17v.66c5.3-.44,8.28-.55,12.26-.55s7.47.11,12.88.55v-.66c-6.41-1.1-8.61-2.65-8.06-9.17,1.1-14.8,2.18-34.83,4.17-49.96,10.71,18.22,19.22,42.67,28.6,60.67h2.21l28.51-63.66,5.64,53.28c.44,6.3-2.76,7.95-8.39,8.83v.66c5.52-.44,10.49-.55,14.8-.55,5.08,0,9.83.11,15.35.55v-.66c-5.96-.99-9.17-2.65-9.94-8.72h0Z"/>
      <path fill="#b49b57" d="M468.38,330.38c-.42-.52-1.02-.9-1.72-1.05-18.46-3.74-27.17-13.11-37.86-35.51l-117.92-252.99c-1.3-2.78-5.25-2.76-6.51.03l-110.69,251.06c-.29.64-.58,1.27-.87,1.89-.91,1.93-1.85,3.77-2.83,5.51-9.51,18.47-18.17,26.46-35.01,30.01-2.58.54-2.4,3.84-2.4,3.94h10.06c19.98,0,37.82-12.19,46.86-29.67l4.15-9.67.09-.24.46-1.08,25.95-60.54h122.59l26.97,59.54c11.22,24.76,33.4,41.66,69.35,41.66h10.01c0-.71-.25-2.37-.68-2.89ZM246.11,218.14l53.62-125.13,56.17,125.13h-109.79Z"/>
      <path fill="#151b54" d="M414.04,329.02c-.27-.34-.68-.56-1.12-.69-5.72-1.73-19.87-8.82-26.88-23.5l-75.16-165.47c-.85-1.82-3.44-1.81-4.26.02l-34.73,78.76h12.57l15.34-35.79,15.97,35.79,34.55,77.43c9.39,21.03,30.06,35.06,53.09,35.27.68,0,1.37,0,2.07-.01.82.05,1.64.08,2.45.08h6.56c0-.47-.17-1.55-.45-1.89h0ZM234.11,303.82c-.19.42-.38.84-.57,1.24-.59,1.27-1.21,2.47-1.85,3.61-6.23,12.1-11.9,17.33-22.93,19.66-1.69.35-1.57,2.51-1.57,2.58h6.58c13.09,0,24.78-7.99,30.7-19.43l2.72-6.34.06-.16.3-.7,30.94-72.21h-12.74l-31.64,71.75h0Z"/>
    </svg>