<?xml version="1.0" encoding="UTF-8"?>
<svg xmlns="http://www.w3.org/2000/svg" version="1.2" viewBox="0 0 420 180" width="420" height="180">
  <title>One80logo_Valletta_Black-svg</title>
  <style>
		tspan { white-space:pre } 
		.s0 { fill: #000000 } 
	</style>
  <g id="Layer">
    <g id="Layer">
      <g id="Layer">
        <path id="Layer" class="s0" d="m266.2 81.1c3.4-4 9.7-13.9 10.7-21.8 1.7-15-8.9-28.9-28.3-28.9-19.4 0-35.9 20-29.2 39.2 2.4 6.9 5.6 9 21.3 19.7 17.4 11.9 28.6 24.2 30 26.7 1.8 3 7.6 12.9 2.3 21.2-5.1 8-15.3 10.2-24.2 9.6-8-0.6-24.1-6.9-28.5-24.9-4.5-17.9-1.2-29.2 8.7-38.8l-1.1-1.2c0 0-16.7 11.4-19 26.7-2.1 14 2 21.8 9.9 30.7 6.8 7.6 19.9 11.1 30.5 11.1 8.2 0 21.5-2.9 32.3-23.3 11.9-22.5-0.8-31.8-6-36.1-5.1-4.3-36.1-28.4-39.7-31.7-3.7-3.2-14.7-15.2-3-22.8 3.4-2.2 7.2-3.8 12.9-3.8 8.1 0 24.4 11.3 24.5 24.3 0 12.2-3.4 20.2-5.3 22.4z"></path>
        <path id="Layer" fill-rule="evenodd" class="s0" d="m388.1 90.2c0.1 33.1-19.7 60-44.2 60.1-24.5 0-44.3-26.8-44.4-60-0.1-33.1 19.7-60 44.2-60.1 24.5 0 44.3 26.8 44.4 60zm-44.4-58.5c-14.4 0-26 25.5-25.9 58.6 0.1 33.1 11.7 58.5 26.1 58.5 14.4 0 26-25.5 25.9-58.6-0.1-33.1-11.7-58.5-26.1-58.5z"></path>
      </g>
      <g id="Layer">
        <path id="Layer" fill-rule="evenodd" class="s0" d="m55.7 66.1q10.3 0 17.3 7.8 6.9 7.8 6.9 18.1 0.1 10.5-6.9 18.3-6.9 7.8-17.2 7.8-10.3 0-17.2-7.8-6.9-7.7-6.9-18.2 0-10.3 6.8-18.1 6.9-7.9 17.2-7.9zm0.2 47.6q8.5 0 14.2-6.5 5.7-6.6 5.7-15.2-0.1-8.7-5.8-15.1-5.7-6.5-14.2-6.5-8.6 0-14.3 6.5-5.7 6.5-5.6 15.1 0 8.7 5.7 15.2 5.7 6.6 14.3 6.5z"></path>
        <path id="Layer" class="s0" d="m112.9 66q8.8 0 14.2 6.8 5.1 6.3 5.1 15.3l0.1 26.5q0 2.1-2.1 2.1-2.1 0-2.1-2l-0.1-26.6q0-7.2-4-12.5-4.1-5.3-11.1-5.3-8.8 0-13.4 7.2-3.9 6.2-3.9 16.4l0.1 20.8q0 2.1-2.1 2.1-2.1 0-2.1-2.1l-0.1-45.6q0-2 2.1-2 2.1 0 2.1 2v7.4q6.1-10.5 17.3-10.5z"></path>
        <path id="Layer" fill-rule="evenodd" class="s0" d="m167 66q10.3 0 17.3 7.8 6.9 7.8 6.9 18.3 0.1 2.1-2.2 2.1l-41.8 0.1q0.7 7.9 6.3 13.7 5.6 5.7 13.5 5.7 10.9 0 17.2-8.7 0.8-1.1 1.8-1.1 2.1 0 2.1 2.1 0 0.6-0.3 1.1-6.2 10.9-20.7 10.9-10.2 0-17.1-7.7-7-7.8-7-18.2 0-10.5 6.8-18.3 6.9-7.8 17.2-7.8zm-19.8 24l39.6-0.1q-0.8-8-6.4-13.8-5.5-5.8-13.5-5.7-7.9 0-13.5 5.8-5.5 5.8-6.2 13.8z"></path>
      </g>
    </g>
    <path id="TM copy" class="s0" d="m397.1 31.5v1h-2.3v5.5h-1.4v-5.5h-2.2v-1zm8.9 0h1v6.5h-1.2v-4.2q0-0.3 0-0.5l-2.2 3.6q-0.2 0.3-0.5 0.3h-0.2q-0.3 0-0.5-0.3l-2.3-3.7q0 0.2 0 0.3 0.1 0.2 0.1 0.3v4.2h-1.3v-6.5h1.1q0.1 0 0.1 0 0.1 0 0.2 0 0 0 0.1 0.1 0 0 0 0.1l2.3 3.6q0.1 0.1 0.1 0.3 0.1 0.2 0.2 0.3 0.1-0.2 0.1-0.3 0.1-0.2 0.2-0.3l2.2-3.6q0.1-0.1 0.1-0.1 0.1-0.1 0.1-0.1 0.1 0 0.1 0 0.1 0 0.2 0z"></path>
  </g>
</svg>
